<?xml version="1.0" encoding="UTF-8"?>
<svg xmlns="http://www.w3.org/2000/svg" xmlns:xlink="http://www.w3.org/1999/xlink" width="150px" height="378px" viewBox="0 0 150 378" version="1.1">
<defs>
<clipPath id="clip1">
  <path d="M 0.3125 197.742188 L 150 197.742188 L 150 378 L 0.3125 378 Z M 0.3125 197.742188 "/>
</clipPath>
<clipPath id="clip2">
  <path d="M 28.777344 77 L 121.847656 77 L 121.847656 155.113281 L 28.777344 155.113281 Z M 28.777344 77 "/>
</clipPath>
<clipPath id="clip3">
  <path d="M 33 0.152344 L 91 0.152344 L 91 73 L 33 73 Z M 33 0.152344 "/>
</clipPath>
</defs>
<g id="surface1">
<g clip-path="url(#clip1)" clip-rule="nonzero">
<path style=" stroke:none;fill-rule:nonzero;fill:rgb(0%,13.72549%,100%);fill-opacity:1;" d="M 54.707031 378.304688 L 11.03125 378.304688 C 6.429688 378.304688 2.898438 376.101562 0.445312 371.6875 C 0.0234375 370.382812 -0.0742188 368.945312 0.15625 367.375 L 0.15625 208.960938 C 0.15625 204.589844 2.246094 201.175781 6.429688 198.71875 C 7.734375 198.066406 9.265625 197.742188 11.03125 197.742188 L 54.015625 197.742188 C 101.429688 197.742188 131.636719 214.945312 144.640625 249.355469 C 148.824219 260.597656 150.800781 273.601562 150.570312 288.371094 C 150.570312 317.90625 142.207031 340.269531 125.480469 355.460938 C 108.71875 370.691406 85.125 378.304688 54.707031 378.304688 Z M 22.308594 215.578125 L 22.308594 361.101562 L 57.351562 361.101562 C 92.605469 361.101562 114.433594 346.773438 122.835938 318.117188 C 125.480469 309.296875 126.804688 299.050781 126.804688 287.390625 C 126.804688 275.691406 125.039062 265.21875 121.511719 255.972656 C 117.980469 246.691406 112.898438 238.960938 106.261719 232.785156 C 93.71875 221.316406 75.210938 215.578125 50.734375 215.578125 Z M 22.308594 215.578125 "/>
</g>
<g clip-path="url(#clip2)" clip-rule="nonzero">
<path style=" stroke:none;fill-rule:nonzero;fill:rgb(0%,13.72549%,100%);fill-opacity:1;" d="M 108.917969 87.898438 L 101.164062 87.898438 L 101.164062 77.558594 L 28.777344 77.558594 L 28.777344 142.1875 C 28.777344 149.425781 34.464844 155.113281 41.703125 155.113281 L 88.238281 155.113281 C 95.476562 155.113281 101.164062 149.425781 101.164062 142.1875 L 101.164062 134.433594 L 108.917969 134.433594 C 116.15625 134.433594 121.84375 128.746094 121.84375 121.507812 L 121.84375 100.824219 C 121.84375 93.585938 116.15625 87.898438 108.917969 87.898438 Z M 54.371094 135.726562 L 49.976562 138.3125 L 38.601562 118.921875 L 49.714844 99.53125 L 54.113281 102.117188 L 44.804688 118.921875 Z M 62.382812 137.792969 L 57.214844 136.242188 L 67.554688 100.050781 L 72.46875 101.339844 Z M 80.222656 138.3125 L 75.828125 135.726562 L 85.394531 118.921875 L 75.828125 102.117188 L 80.222656 99.53125 L 91.339844 118.921875 Z M 116.675781 121.507812 C 116.675781 125.902344 113.3125 129.261719 108.917969 129.261719 L 101.164062 129.261719 L 101.164062 93.070312 L 108.917969 93.070312 C 113.3125 93.070312 116.675781 96.429688 116.675781 100.824219 Z M 116.675781 121.507812 "/>
</g>
<g clip-path="url(#clip3)" clip-rule="nonzero">
<path style=" stroke:none;fill-rule:nonzero;fill:rgb(0%,13.72549%,100%);fill-opacity:1;" d="M 90.820312 72.386719 L 85.652344 72.386719 L 85.652344 67.214844 C 85.652344 64.371094 83.324219 62.046875 80.480469 62.046875 L 44.289062 62.046875 C 38.601562 62.046875 33.945312 57.390625 33.945312 51.703125 C 33.945312 46.015625 38.601562 41.363281 44.289062 41.363281 L 80.480469 41.363281 C 83.324219 41.363281 85.652344 39.039062 85.652344 36.195312 C 85.652344 33.351562 83.324219 31.023438 80.480469 31.023438 L 44.289062 31.023438 C 38.601562 31.023438 33.945312 26.371094 33.945312 20.683594 C 33.945312 14.996094 38.601562 10.339844 44.289062 10.339844 L 80.480469 10.339844 C 83.324219 10.339844 85.652344 8.015625 85.652344 5.171875 L 85.652344 0 L 90.820312 0 L 90.820312 5.171875 C 90.820312 10.859375 86.167969 15.511719 80.480469 15.511719 L 44.289062 15.511719 C 41.445312 15.511719 39.117188 17.839844 39.117188 20.683594 C 39.117188 23.527344 41.445312 25.851562 44.289062 25.851562 L 80.480469 25.851562 C 86.167969 25.851562 90.820312 30.507812 90.820312 36.195312 C 90.820312 41.882812 86.167969 46.535156 80.480469 46.535156 L 44.289062 46.535156 C 41.445312 46.535156 39.117188 48.859375 39.117188 51.703125 C 39.117188 54.546875 41.445312 56.875 44.289062 56.875 L 80.480469 56.875 C 86.167969 56.875 90.820312 61.527344 90.820312 67.214844 Z M 90.820312 72.386719 "/>
</g>
</g>
</svg>
