<svg xmlns="http://www.w3.org/2000/svg" version="1.1" xmlns:xlink="http://www.w3.org/1999/xlink" xmlns:svgjs="http://svgjs.dev/svgjs" width="2000" height="656" viewBox="0 0 2000 656"><g transform="matrix(1,0,0,1,-1.2121212121213603,-0.6744211118049179)"><svg viewBox="0 0 396 130" data-background-color="#ffffff" preserveAspectRatio="xMidYMid meet" height="656" width="2000" xmlns="http://www.w3.org/2000/svg" xmlns:xlink="http://www.w3.org/1999/xlink"><g id="tight-bounds" transform="matrix(1,0,0,1,0.24000000000003752,0.13365052520524046)"><svg viewBox="0 0 395.5199999999999 129.73269894958952" height="129.73269894958952" width="395.5199999999999"><g><svg viewBox="0 0 675.8488165746091 221.68206678830433" height="129.73269894958952" width="395.5199999999999"><g transform="matrix(1,0,0,1,0,48.73523929997819)"><svg viewBox="0 0 395.52 124.21158818834795" height="124.21158818834795" width="395.52"><g id="textblocktransform"><svg viewBox="0 0 395.52 124.21158818834795" height="124.21158818834795" width="395.52" id="textblock"><g><svg viewBox="0 0 395.52 124.21158818834795" height="124.21158818834795" width="395.52"><g transform="matrix(1,0,0,1,0,0)"><svg width="395.52" viewBox="4.25 -38.7 125.28999999999999 39.35" height="124.21158818834795" data-palette-color="#0080ff"><g class="wordmark-text-0" data-fill-palette-color="primary" id="text-0"><path d="M11.35-34.4Q15.8-34.4 19.1-33.05 22.4-31.7 24.48-27.95 26.55-24.2 26.55-17.4L26.55-17.4Q26.55-7.7 22.43-3.85 18.3 0 12 0L12 0 4.25 0 4.25-34.4 11.35-34.4ZM12.05-30.75L8.9-30.75 8.9-3.6 12.3-3.6Q16.6-3.6 19.15-6.58 21.7-9.55 21.7-17.4L21.7-17.4Q21.7-22.9 20.38-25.85 19.05-28.8 16.98-29.78 14.9-30.75 12.05-30.75L12.05-30.75ZM49.5-6Q49.5-4.4 49.95-3.63 50.4-2.85 51.35-2.45L51.35-2.45 50.4 0.6Q48.45 0.3 47.35-0.6 46.25-1.5 45.8-3.35L45.8-3.35Q43.25 0.65 38.65 0.65L38.65 0.65Q35.15 0.65 33.1-1.53 31.05-3.7 31.05-7.35L31.05-7.35Q31.05-11.55 33.8-13.75 36.55-15.95 41.65-15.95L41.65-15.95 45.05-15.95 45.05-18.2Q45.05-20.95 43.92-22.18 42.8-23.4 40.25-23.4L40.25-23.4Q37.5-23.4 33.85-22L33.85-22 32.75-25.15Q37.15-26.95 40.95-26.95L40.95-26.95Q49.5-26.95 49.5-18.4L49.5-18.4 49.5-6ZM39.7-2.75Q43.2-2.75 45.05-6.85L45.05-6.85 45.05-13.05 42.15-13.05Q35.65-13.05 35.65-7.6L35.65-7.6Q35.65-5.25 36.7-4 37.75-2.75 39.7-2.75L39.7-2.75ZM69.34-26.95Q72.5-26.95 74.27-24.88 76.05-22.8 76.05-19.15L76.05-19.15 76.05 0 71.55 0 71.55-18.6Q71.55-21.15 70.7-22.28 69.84-23.4 68.09-23.4L68.09-23.4Q64.8-23.4 62.09-18.7L62.09-18.7 62.09 0 57.59 0 57.59-26.3 61.5-26.3 61.84-22.4Q64.9-26.95 69.34-26.95L69.34-26.95ZM83.94-26.3L88.44-26.3 88.44 0 83.94 0 83.94-26.3ZM86.19-38.7Q87.49-38.7 88.32-37.85 89.14-37 89.14-35.75L89.14-35.75Q89.14-34.5 88.34-33.68 87.54-32.85 86.19-32.85L86.19-32.85Q84.89-32.85 84.07-33.68 83.24-34.5 83.24-35.75L83.24-35.75Q83.24-37 84.07-37.85 84.89-38.7 86.19-38.7L86.19-38.7ZM114.99-13.95Q114.99-12.9 114.89-11.6L114.89-11.6 99.59-11.6Q99.79-7 101.44-4.98 103.09-2.95 105.94-2.95L105.94-2.95Q107.74-2.95 109.17-3.5 110.59-4.05 112.14-5.3L112.14-5.3 114.14-2.65Q110.44 0.65 105.74 0.65L105.74 0.65Q100.59 0.65 97.77-2.93 94.94-6.5 94.94-12.95L94.94-12.95Q94.94-19.4 97.64-23.18 100.34-26.95 105.14-26.95L105.14-26.95Q109.89-26.95 112.44-23.58 114.99-20.2 114.99-13.95L114.99-13.95ZM110.64-14.75L110.64-15.3Q110.64-23.55 105.19-23.55L105.19-23.55Q102.69-23.55 101.24-21.48 99.79-19.4 99.59-14.75L99.59-14.75 110.64-14.75ZM126.19 0.65Q123.79 0.65 122.39-0.8 120.99-2.25 120.99-4.85L120.99-4.85 120.99-36.95 125.49-37.45 125.49-5Q125.49-3.05 127.09-3.05L127.09-3.05Q127.74-3.05 128.54-3.35L128.54-3.35 129.54-0.2Q127.94 0.65 126.19 0.65L126.19 0.65Z" fill="#0080ff" data-fill-palette-color="primary"></path></g></svg></g></svg></g></svg></g></svg></g><g transform="matrix(1,0,0,1,454.1667497863048,0)"><svg viewBox="0 0 221.68206678830433 221.68206678830433" height="221.68206678830433" width="221.68206678830433"><g><svg></svg></g><g id="icon-0"><svg viewBox="0 0 221.68206678830433 221.68206678830433" height="221.68206678830433" width="221.68206678830433"><g><path d="M0 110.841c0-61.216 49.625-110.841 110.841-110.841 61.216 0 110.841 49.625 110.841 110.841 0 61.216-49.625 110.841-110.841 110.841-61.216 0-110.841-49.625-110.841-110.841zM110.841 210.481c55.029 0 99.639-44.61 99.64-99.64 0-55.029-44.61-99.639-99.64-99.639-55.029 0-99.639 44.61-99.639 99.639 0 55.029 44.61 99.639 99.639 99.64z" data-fill-palette-color="accent" fill="#010c80" stroke="transparent"></path></g><g transform="matrix(1,0,0,1,51.882323401866024,51.882323401866024)"><svg viewBox="0 0 117.91741998457228 117.91741998457228" height="117.91741998457228" width="117.91741998457228"><g><svg xmlns="http://www.w3.org/2000/svg" xmlns:xlink="http://www.w3.org/1999/xlink" version="1.1" x="0" y="0" viewBox="2 2 60 60" style="enable-background:new 0 0 64 64;" xml:space="preserve" height="117.91741998457228" width="117.91741998457228" class="icon-cg-0" data-fill-palette-color="accent" id="cg-0"><rect x="2" y="2" width="2" height="2" fill="#010c80" data-fill-palette-color="accent"></rect><rect x="6" y="2" width="2" height="2" fill="#010c80" data-fill-palette-color="accent"></rect><rect x="8" y="10" width="2" height="2" fill="#010c80" data-fill-palette-color="accent"></rect><rect x="12" y="10" width="2" height="2" fill="#010c80" data-fill-palette-color="accent"></rect><rect x="10" y="6" width="3" height="2" fill="#010c80" data-fill-palette-color="accent"></rect><rect x="10" y="2" width="5" height="2" fill="#010c80" data-fill-palette-color="accent"></rect><rect x="2" y="6" width="6" height="2" fill="#010c80" data-fill-palette-color="accent"></rect><rect x="2" y="10" width="4" height="2" fill="#010c80" data-fill-palette-color="accent"></rect><rect x="9" y="28" width="2" height="2" fill="#010c80" data-fill-palette-color="accent"></rect><rect x="7" y="20" width="2" height="2" fill="#010c80" data-fill-palette-color="accent"></rect><rect x="3" y="20" width="2" height="2" fill="#010c80" data-fill-palette-color="accent"></rect><rect x="4" y="24" width="3" height="2" fill="#010c80" data-fill-palette-color="accent"></rect><rect x="2" y="28" width="5" height="2" fill="#010c80" data-fill-palette-color="accent"></rect><rect x="9" y="24" width="3" height="2" fill="#010c80" data-fill-palette-color="accent"></rect><rect x="11" y="20" width="3" height="2" fill="#010c80" data-fill-palette-color="accent"></rect><rect x="49" y="2" width="2" height="2" fill="#010c80" data-fill-palette-color="accent"></rect><rect x="53" y="2" width="2" height="2" fill="#010c80" data-fill-palette-color="accent"></rect><rect x="56" y="10" width="2" height="2" fill="#010c80" data-fill-palette-color="accent"></rect><rect x="60" y="10" width="2" height="2" fill="#010c80" data-fill-palette-color="accent"></rect><rect x="57" y="6" width="3" height="2" fill="#010c80" data-fill-palette-color="accent"></rect><rect x="57" y="2" width="5" height="2" fill="#010c80" data-fill-palette-color="accent"></rect><rect x="49" y="6" width="6" height="2" fill="#010c80" data-fill-palette-color="accent"></rect><rect x="51" y="10" width="3" height="2" fill="#010c80" data-fill-palette-color="accent"></rect><rect x="60" y="28" width="2" height="2" fill="#010c80" data-fill-palette-color="accent"></rect><rect x="55" y="20" width="2" height="2" fill="#010c80" data-fill-palette-color="accent"></rect><rect x="51" y="20" width="2" height="2" fill="#010c80" data-fill-palette-color="accent"></rect><rect x="52" y="24" width="3" height="2" fill="#010c80" data-fill-palette-color="accent"></rect><rect x="53" y="28" width="5" height="2" fill="#010c80" data-fill-palette-color="accent"></rect><rect x="57" y="24" width="3" height="2" fill="#010c80" data-fill-palette-color="accent"></rect><rect x="59" y="20" width="3" height="2" fill="#010c80" data-fill-palette-color="accent"></rect><rect x="2" y="39" width="2" height="2" fill="#010c80" data-fill-palette-color="accent"></rect><rect x="6" y="39" width="2" height="2" fill="#010c80" data-fill-palette-color="accent"></rect><rect x="8" y="47" width="2" height="2" fill="#010c80" data-fill-palette-color="accent"></rect><rect x="15" y="43" width="2" height="2" fill="#010c80" data-fill-palette-color="accent"></rect><rect x="10" y="43" width="3" height="2" fill="#010c80" data-fill-palette-color="accent"></rect><rect x="10" y="39" width="5" height="2" fill="#010c80" data-fill-palette-color="accent"></rect><rect x="2" y="43" width="6" height="2" fill="#010c80" data-fill-palette-color="accent"></rect><rect x="2" y="47" width="4" height="2" fill="#010c80" data-fill-palette-color="accent"></rect><path d="M61 41H51c-0.277 0-0.527 0.113-0.708 0.294l-5.997 5.997c-0.174 0.173-0.279 0.412-0.288 0.675L40 46.328v-4.914l5.707-5.707C45.895 35.52 46 35.266 46 35v-3.051c2.244-0.252 4-2.139 4-4.449 0-1.914-1.207-3.542-2.895-4.191l0.602-0.602C47.895 22.52 48 22.266 48 22v-7c0-4.963-4.037-9-9-9h-0.08C37.5 3.551 34.851 2 32 2h-7c-0.553 0-1 0.447-1 1 0 1.042 0.2 2.06 0.588 3.01C19.816 6.226 16 10.176 16 15v7c0 0.266 0.105 0.52 0.293 0.707l0.602 0.602C15.207 23.958 14 25.586 14 27.5c0 2.31 1.756 4.197 4 4.449V35c0 0.266 0.105 0.52 0.293 0.707L24 41.414v4.914L2.621 55.074C2.245 55.229 2 55.594 2 56v5c0 0.553 0.447 1 1 1h42 16c0.553 0 1-0.447 1-1V42C62 41.447 61.553 41 61 41zM48 27.5c0 1.207-0.86 2.218-2 2.45v-4.9C47.14 25.282 48 26.293 48 27.5zM18 29.95c-1.14-0.232-2-1.243-2-2.45s0.86-2.218 2-2.45V29.95zM18 21.586V15c0-3.859 3.141-7 7-7h1.26c0.373 0 0.714-0.207 0.887-0.537 0.172-0.331 0.146-0.729-0.066-1.035C26.567 5.693 26.23 4.868 26.084 4H32c2.298 0 4.424 1.346 5.414 3.43C37.58 7.778 37.932 8 38.317 8H39c3.859 0 7 3.141 7 7v6.586l-1 1-1-1V15c0-0.281-0.118-0.549-0.325-0.738-0.208-0.189-0.486-0.285-0.766-0.258L32 14.996l-10.909-0.992c-0.278-0.026-0.557 0.068-0.766 0.258C20.118 14.451 20 14.719 20 15v6.586l-1 1L18 21.586zM20 34.586V31v-6.586l1.707-1.707C21.895 22.52 22 22.266 22 22v-5.905l9.909 0.901c0.061 0.006 0.121 0.006 0.182 0L42 16.095V22c0 0.266 0.105 0.52 0.293 0.707L44 24.414V31v3.586L35.586 43h-7.172L20 34.586zM38 43.414v3.071l-6 4.286-6-4.286v-3.071l1.293 1.293C27.48 44.895 27.734 45 28 45h8c0.266 0 0.52-0.105 0.707-0.293L38 43.414zM44 60H4v-3.329l20.868-8.536 6.551 4.679C31.593 52.938 31.796 53 32 53s0.407-0.062 0.581-0.187l6.551-4.679L44 50.126V60zM50 44.414V47h-2.586L50 44.414zM60 60H46V49.454 49h5c0.553 0 1-0.447 1-1v-5h8V60z" fill="#010c80" data-fill-palette-color="accent"></path><rect x="48" y="51" width="2" height="2" fill="#010c80" data-fill-palette-color="accent"></rect><rect x="52" y="51" width="2" height="2" fill="#010c80" data-fill-palette-color="accent"></rect><rect x="56" y="51" width="2" height="2" fill="#010c80" data-fill-palette-color="accent"></rect><rect x="48" y="55" width="4" height="2" fill="#010c80" data-fill-palette-color="accent"></rect><rect x="54" y="55" width="4" height="2" fill="#010c80" data-fill-palette-color="accent"></rect><rect x="54" y="47" width="4" height="2" fill="#010c80" data-fill-palette-color="accent"></rect><rect x="31" y="55" width="2" height="2" fill="#010c80" data-fill-palette-color="accent"></rect><path d="M25.414 27l2.293-2.293-1.414-1.414-3 3c-0.391 0.391-0.391 1.023 0 1.414l3 3 1.414-1.414L25.414 27z" fill="#010c80" data-fill-palette-color="accent"></path><path d="M37.707 30.707l3-3c0.391-0.391 0.391-1.023 0-1.414l-3-3-1.414 1.414L38.586 27l-2.293 2.293L37.707 30.707z" fill="#010c80" data-fill-palette-color="accent"></path><rect x="27.528" y="26" transform="matrix(0.4472 -0.8944 0.8944 0.4472 -6.4604 43.5469)" width="8.944" height="2" fill="#010c80" data-fill-palette-color="accent"></rect><rect x="31" y="34" width="2" height="2" fill="#010c80" data-fill-palette-color="accent"></rect><rect x="35" y="34" width="2" height="2" fill="#010c80" data-fill-palette-color="accent"></rect><rect x="27" y="34" width="2" height="2" fill="#010c80" data-fill-palette-color="accent"></rect></svg></g></svg></g></svg></g></svg></g></svg></g><defs></defs></svg><rect width="395.5199999999999" height="129.73269894958952" fill="none" stroke="none" visibility="hidden"></rect></g></svg></g></svg>